# xmcd CD database file
#
# Track frame offsets:
#	150
#	40006
#	85602
#	113504
#	146562
#	185136
#	225410
#	257882
#
# Disc length: 3780 seconds
#
# Revision: 1
# Processed by: cddbd v1.5.1PL2 Copyright (c) Steve Scherf et al.
# Submitted via: CDex 1.51
#
DISCID=5f0ec208
DTITLE=Nicolas Simion Trio - Nick at Night
DYEAR=2000
DGENRE=Jazz
TTITLE0=Slovakain Folk Song
TTITLE1=Stag´s March
TTITLE2=Wedding Song From Banat
TTITLE3=Come Along, Sweet Heart
TTITLE4=Three-Leafed Flower
TTITLE5=I Remember Erik
TTITLE6=Ma Belle Stephanie
TTITLE7=Nick At Night
EXTD=YEAR: 2000
EXTT0=
EXTT1=
EXTT2=
EXTT3=
EXTT4=
EXTT5=
EXTT6=
EXTT7=
PLAYORDER=
